<svg id="visual" viewBox="0 0 900 600" width="900" height="600" xmlns="http://www.w3.org/2000/svg" xmlns:xlink="http://www.w3.org/1999/xlink" version="1.1"><path d="M0 85L13.7 103C27.3 121 54.7 157 82 162C109.3 167 136.7 141 163.8 138C191 135 218 155 245.2 175C272.3 195 299.7 215 327 218C354.3 221 381.7 207 409 186C436.3 165 463.7 137 491 125C518.3 113 545.7 117 573 114C600.3 111 627.7 101 654.8 113C682 125 709 159 736.2 163C763.3 167 790.7 141 818 136C845.3 131 872.7 147 886.3 155L900 163L900 0L886.3 0C872.7 0 845.3 0 818 0C790.7 0 763.3 0 736.2 0C709 0 682 0 654.8 0C627.7 0 600.3 0 573 0C545.7 0 518.3 0 491 0C463.7 0 436.3 0 409 0C381.7 0 354.3 0 327 0C299.7 0 272.3 0 245.2 0C218 0 191 0 163.8 0C136.7 0 109.3 0 82 0C54.7 0 27.3 0 13.7 0L0 0Z" fill="#539a89"></path><path d="M0 349L13.7 356C27.3 363 54.7 377 82 372C109.3 367 136.7 343 163.8 326C191 309 218 299 245.2 302C272.3 305 299.7 321 327 326C354.3 331 381.7 325 409 320C436.3 315 463.7 311 491 313C518.3 315 545.7 323 573 324C600.3 325 627.7 319 654.8 323C682 327 709 341 736.2 350C763.3 359 790.7 363 818 356C845.3 349 872.7 331 886.3 322L900 313L900 161L886.3 153C872.7 145 845.3 129 818 134C790.7 139 763.3 165 736.2 161C709 157 682 123 654.8 111C627.7 99 600.3 109 573 112C545.7 115 518.3 111 491 123C463.7 135 436.3 163 409 184C381.7 205 354.3 219 327 216C299.7 213 272.3 193 245.2 173C218 153 191 133 163.8 136C136.7 139 109.3 165 82 160C54.7 155 27.3 119 13.7 101L0 83Z" fill="#3e8977"></path><path d="M0 409L13.7 421C27.3 433 54.7 457 82 466C109.3 475 136.7 469 163.8 457C191 445 218 427 245.2 427C272.3 427 299.7 445 327 450C354.3 455 381.7 447 409 446C436.3 445 463.7 451 491 450C518.3 449 545.7 441 573 439C600.3 437 627.7 441 654.8 438C682 435 709 425 736.2 424C763.3 423 790.7 431 818 438C845.3 445 872.7 451 886.3 454L900 457L900 311L886.3 320C872.7 329 845.3 347 818 354C790.7 361 763.3 357 736.2 348C709 339 682 325 654.8 321C627.7 317 600.3 323 573 322C545.7 321 518.3 313 491 311C463.7 309 436.3 313 409 318C381.7 323 354.3 329 327 324C299.7 319 272.3 303 245.2 300C218 297 191 307 163.8 324C136.7 341 109.3 365 82 370C54.7 375 27.3 361 13.7 354L0 347Z" fill="#287866"></path><path d="M0 535L13.7 539C27.3 543 54.7 551 82 551C109.3 551 136.7 543 163.8 534C191 525 218 515 245.2 509C272.3 503 299.7 501 327 511C354.3 521 381.7 543 409 548C436.3 553 463.7 541 491 537C518.3 533 545.7 537 573 541C600.3 545 627.7 549 654.8 549C682 549 709 545 736.2 545C763.3 545 790.7 549 818 550C845.3 551 872.7 549 886.3 548L900 547L900 455L886.3 452C872.7 449 845.3 443 818 436C790.7 429 763.3 421 736.2 422C709 423 682 433 654.8 436C627.7 439 600.3 435 573 437C545.7 439 518.3 447 491 448C463.7 449 436.3 443 409 444C381.7 445 354.3 453 327 448C299.7 443 272.3 425 245.2 425C218 425 191 443 163.8 455C136.7 467 109.3 473 82 464C54.7 455 27.3 431 13.7 419L0 407Z" fill="#226858"></path><path d="M0 601L13.7 601C27.3 601 54.7 601 82 601C109.3 601 136.7 601 163.8 601C191 601 218 601 245.2 601C272.3 601 299.7 601 327 601C354.3 601 381.7 601 409 601C436.3 601 463.7 601 491 601C518.3 601 545.7 601 573 601C600.3 601 627.7 601 654.8 601C682 601 709 601 736.2 601C763.3 601 790.7 601 818 601C845.3 601 872.7 601 886.3 601L900 601L900 545L886.3 546C872.7 547 845.3 549 818 548C790.7 547 763.3 543 736.2 543C709 543 682 547 654.8 547C627.7 547 600.3 543 573 539C545.7 535 518.3 531 491 535C463.7 539 436.3 551 409 546C381.7 541 354.3 519 327 509C299.7 499 272.3 501 245.2 507C218 513 191 523 163.8 532C136.7 541 109.3 549 82 549C54.7 549 27.3 541 13.7 537L0 533Z" fill="#1d584b"></path></svg>